# xmcd
#
# Track frame offsets: 
#        150
#        18559
#        40082
#        56295
#        74782
#        91492
#        107387
#        122225
#        141125
#        158405
#        173707
#        194157
#        212462
#        226022
#        239378
#        256460
#        274675
#        293245
#        310945
#        336957
#
# Disc length: 4710 seconds
#
# Revision: 2
# Processed by: cddbd v1.5.2PL0 Copyright (c) Steve Scherf et al.
# Submitted via: ExactAudioCopy v1.3
#
DISCID=20126414
DTITLE=Whiteberry - GOLDEN☆BEST Whiteberry
DYEAR=2008
DGENRE=JPop
TTITLE0=通学路
TTITLE1=YUKI
TTITLE2=空の飛び方　～＿／＿～
TTITLE3=Whiteberryの小さな冒険
TTITLE4=夏祭り
TTITLE5=太陽をぶっとばせ!!
TTITLE6=願い星
TTITLE7=あくび
TTITLE8=桜並木道
TTITLE9=携帯中毒
TTITLE10=かくれんぼ
TTITLE11=立入禁止
TTITLE12=それだけなんだけど
TTITLE13=正直者
TTITLE14=炭酸水
TTITLE15=自転車泥棒
TTITLE16=BE HAPPY
TTITLE17=生まれ変わってもアタシでいたい
TTITLE18=声がなくなるまで
TTITLE19=信じる力
EXTD=YEAR: 2008
EXTT0=
EXTT1=
EXTT2=
EXTT3=
EXTT4=
EXTT5=
EXTT6=
EXTT7=
EXTT8=
EXTT9=
EXTT10=
EXTT11=
EXTT12=
EXTT13=
EXTT14=
EXTT15=
EXTT16=
EXTT17=
EXTT18=
EXTT19=
PLAYORDER=
